<svg width="20" height="20" viewBox="0 0 20 20" fill="none" xmlns="http://www.w3.org/2000/svg">
<g id="Delete">
<path id="Vector" d="M6.91667 15.8332H13.0833C13.1389 15.8332 13.1944 15.8054 13.25 15.7498C13.3056 15.6943 13.3333 15.6387 13.3333 15.5832V7.49984H6.66667V15.5832C6.66667 15.6387 6.69444 15.6943 6.75 15.7498C6.80556 15.8054 6.86111 15.8332 6.91667 15.8332ZM4.6875 5.24984V3.99984H7.16667L8 3.1665H12L12.8333 3.99984H15.3125V5.24984H4.6875ZM6.91667 17.0832C6.5 17.0832 6.14583 16.9373 5.85417 16.6457C5.5625 16.354 5.41667 15.9998 5.41667 15.5832V6.24984H14.5833V15.5832C14.5833 15.9998 14.4375 16.354 14.1458 16.6457C13.8542 16.9373 13.5 17.0832 13.0833 17.0832H6.91667ZM6.66667 15.8332H13.3333C13.3333 15.8332 13.3056 15.8332 13.25 15.8332C13.1944 15.8332 13.1389 15.8332 13.0833 15.8332H6.91667C6.86111 15.8332 6.80556 15.8332 6.75 15.8332C6.69444 15.8332 6.66667 15.8332 6.66667 15.8332Z" fill="white" fill-opacity="0.56"/>
</g>
</svg>
