<svg width="20" height="20" viewBox="0 0 20 20" fill="none" xmlns="http://www.w3.org/2000/svg">
<g id="Favourite">
<path id="Vector" d="M9.99992 16.9375L9.06242 16.1042C6.95131 14.2014 5.2602 12.5486 3.98909 11.1458C2.71853 9.74306 2.08325 8.29167 2.08325 6.79167C2.08325 5.61111 2.4827 4.62139 3.28159 3.8225C4.07992 3.02417 5.06936 2.625 6.24992 2.625C6.91658 2.625 7.57992 2.78111 8.23992 3.09333C8.89936 3.40611 9.48603 3.90972 9.99992 4.60417C10.5138 3.90972 11.1008 3.40611 11.7608 3.09333C12.4202 2.78111 13.0833 2.625 13.7499 2.625C14.9305 2.625 15.9199 3.02417 16.7183 3.8225C17.5171 4.62139 17.9166 5.61111 17.9166 6.79167C17.9166 8.29167 17.281 9.74306 16.0099 11.1458C14.7394 12.5486 13.0485 14.2014 10.9374 16.1042L9.99992 16.9375ZM9.99992 15.25C11.986 13.4444 13.5938 11.8889 14.8233 10.5833C16.0521 9.27778 16.6666 8.01389 16.6666 6.79167C16.6666 5.95833 16.3888 5.26389 15.8333 4.70833C15.2777 4.15278 14.5833 3.875 13.7499 3.875C13.0971 3.875 12.493 4.05556 11.9374 4.41667C11.3819 4.77778 10.9374 5.30556 10.6041 6H9.39575C9.06242 5.30556 8.61797 4.77778 8.06242 4.41667C7.50686 4.05556 6.9027 3.875 6.24992 3.875C5.41659 3.875 4.72214 4.15278 4.16659 4.70833C3.61103 5.26389 3.33325 5.95833 3.33325 6.79167C3.33325 8.01389 3.94797 9.27778 5.17742 10.5833C6.40631 11.8889 8.01381 13.4444 9.99992 15.25Z" fill="white" fill-opacity="0.56"/>
</g>
</svg>
