<svg width="24" height="24" viewBox="0 0 24 24" fill="none" xmlns="http://www.w3.org/2000/svg">
<g id="Mute">
<path id="Vector" d="M4.25039 18.875V17.375H6.25039V10.125C6.25039 9.87505 6.26706 9.64172 6.30039 9.42505C6.33372 9.20838 6.37539 8.99171 6.42539 8.77505L2.02539 4.37505L3.10039 3.32505L20.9254 21.15L19.8754 22.225L16.5004 18.875H4.25039ZM17.7504 15.15L16.2504 13.65V10.125C16.2504 8.94172 15.8337 7.93738 15.0004 7.11205C14.1671 6.28738 13.1671 5.87505 12.0004 5.87505C11.5337 5.87505 11.0714 5.95405 10.6134 6.11205C10.1547 6.27072 9.75039 6.50005 9.40039 6.80005L8.32539 5.72505C8.67539 5.42505 9.05872 5.17072 9.47539 4.96205C9.89206 4.75405 10.3171 4.60005 10.7504 4.50005V3.80005C10.7504 3.45005 10.8714 3.15405 11.1134 2.91205C11.3547 2.67072 11.6504 2.55005 12.0004 2.55005C12.3504 2.55005 12.6461 2.67072 12.8874 2.91205C13.1294 3.15405 13.2504 3.45005 13.2504 3.80005V4.50005C14.5004 4.78338 15.5631 5.43772 16.4384 6.46305C17.3131 7.48772 17.7504 8.70838 17.7504 10.125V15.15ZM12.0004 21.8C11.5004 21.8 11.0754 21.625 10.7254 21.275C10.3754 20.925 10.2004 20.5 10.2004 20H13.8004C13.8004 20.5 13.6254 20.925 13.2754 21.275C12.9254 21.625 12.5004 21.8 12.0004 21.8ZM7.75039 17.375H14.9754L7.80039 10.175C7.78372 10.2417 7.77139 10.3124 7.76339 10.387C7.75472 10.4624 7.75039 10.5334 7.75039 10.6V17.375Z" fill="white"/>
</g>
</svg>
