<svg width="20" height="20" viewBox="0 0 20 20" fill="none" xmlns="http://www.w3.org/2000/svg">
<g id="Settings">
<path id="Vector" d="M8.08342 17.9168L7.75008 15.3752C7.52786 15.3057 7.3023 15.2016 7.07342 15.0627C6.84397 14.9238 6.63203 14.7779 6.43758 14.6252L4.08342 15.6252L2.16675 12.2918L4.20842 10.7502C4.18064 10.6252 4.16341 10.5002 4.15675 10.3752C4.14953 10.2502 4.14591 10.1252 4.14591 10.0002C4.14591 9.88905 4.14953 9.771 4.15675 9.646C4.16341 9.521 4.18064 9.38905 4.20842 9.25016L2.16675 7.7085L4.08342 4.396L6.43758 5.37516C6.63203 5.22238 6.84397 5.08016 7.07342 4.9485C7.3023 4.81627 7.52786 4.7085 7.75008 4.62516L8.08342 2.0835H11.9167L12.2501 4.62516C12.5001 4.72239 12.7256 4.82988 12.9268 4.94766C13.1284 5.066 13.3334 5.2085 13.5417 5.37516L15.9167 4.396L17.8334 7.7085L15.7709 9.271C15.7987 9.40988 15.8126 9.53488 15.8126 9.646C15.8126 9.75711 15.8126 9.87516 15.8126 10.0002C15.8126 10.1113 15.809 10.2257 15.8017 10.3435C15.7951 10.4618 15.7779 10.5974 15.7501 10.7502L17.7917 12.2918L15.8751 15.6252L13.5417 14.6252C13.3334 14.7918 13.1217 14.9377 12.9067 15.0627C12.6912 15.1877 12.4723 15.2918 12.2501 15.3752L11.9167 17.9168H8.08342ZM10.0001 12.5002C10.6945 12.5002 11.2848 12.2571 11.7709 11.771C12.257 11.2849 12.5001 10.6946 12.5001 10.0002C12.5001 9.30572 12.257 8.71544 11.7709 8.22933C11.2848 7.74322 10.6945 7.50016 10.0001 7.50016C9.30564 7.50016 8.71536 7.74322 8.22925 8.22933C7.74314 8.71544 7.50008 9.30572 7.50008 10.0002C7.50008 10.6946 7.74314 11.2849 8.22925 11.771C8.71536 12.2571 9.30564 12.5002 10.0001 12.5002ZM10.0001 11.2502C9.65286 11.2502 9.35786 11.1285 9.11508 10.8852C8.87175 10.6424 8.75008 10.3474 8.75008 10.0002C8.75008 9.65294 8.87175 9.35794 9.11508 9.11516C9.35786 8.87183 9.65286 8.75016 10.0001 8.75016C10.3473 8.75016 10.6423 8.87183 10.8851 9.11516C11.1284 9.35794 11.2501 9.65294 11.2501 10.0002C11.2501 10.3474 11.1284 10.6424 10.8851 10.8852C10.6423 11.1285 10.3473 11.2502 10.0001 11.2502ZM9.16675 16.6668H10.8126L11.1042 14.4377C11.5348 14.3266 11.9237 14.1668 12.2709 13.9585C12.6181 13.7502 12.9584 13.4863 13.2917 13.1668L15.3542 14.0418L16.1876 12.6252L14.3751 11.271C14.4445 11.0488 14.4898 10.8335 14.5109 10.6252C14.5315 10.4168 14.5417 10.2085 14.5417 10.0002C14.5417 9.77794 14.5315 9.56627 14.5109 9.36516C14.4898 9.1635 14.4445 8.9585 14.3751 8.75016L16.1876 7.37516L15.3751 5.9585L13.2709 6.8335C12.9931 6.54183 12.6598 6.28127 12.2709 6.05183C11.882 5.82294 11.4931 5.65989 11.1042 5.56266L10.8334 3.3335H9.18758L8.89592 5.56266C8.47925 5.65989 8.09036 5.81266 7.72925 6.021C7.36814 6.22933 7.02092 6.49322 6.68758 6.81266L4.62508 5.9585L3.81258 7.37516L5.60425 8.7085C5.5348 8.91683 5.48619 9.12516 5.45842 9.3335C5.43064 9.54183 5.41675 9.76405 5.41675 10.0002C5.41675 10.2224 5.43064 10.4377 5.45842 10.646C5.48619 10.8543 5.5348 11.0627 5.60425 11.271L3.81258 12.6252L4.62508 14.0418L6.68758 13.1668C7.00703 13.4863 7.3473 13.7502 7.70842 13.9585C8.06953 14.1668 8.46536 14.3266 8.89592 14.4377L9.16675 16.6668Z" fill="white" fill-opacity="0.56"/>
</g>
</svg>
